<?xml version="1.0" standalone="no"?><!DOCTYPE svg PUBLIC "-//W3C//DTD SVG 1.1//EN" "http://www.w3.org/Graphics/SVG/1.1/DTD/svg11.dtd"><svg t="1612265538810" class="icon" viewBox="0 0 1024 1024" version="1.1" xmlns="http://www.w3.org/2000/svg" p-id="3610" xmlns:xlink="http://www.w3.org/1999/xlink" width="200" height="200"><defs><style type="text/css"></style></defs><path d="M850.096786 174.030615l-676.405397 0c-26.682709 0-48.315402 21.632693-48.315402 48.314379l0 579.77357c0 26.682709 21.633716 48.316425 48.315402 48.316425l676.405397 0c26.679639 0 48.313356-21.633716 48.313356-48.316425L898.410142 222.344994C898.410142 195.663308 876.777449 174.030615 850.096786 174.030615zM215.966215 802.119587c-23.333428 0-42.274826-18.541285-42.274826-41.413202l0-101.424994 160.9149-160.895457 303.71421 303.733653L215.966215 802.119587zM850.096786 760.706385c0 22.871917-18.945491 41.413202-42.274826 41.413202l-101.159958 0L584.765769 680.224376l265.331018-265.339204L850.096786 760.706385zM550.605761 646.053112l-181.841511-181.839465 0.285502-0.295735-34.161031-34.160008-0.283456 0.294712-0.118704-0.106424-34.161031 34.160008 0.095167 0.106424L173.691389 590.951143 173.691389 263.760243c0-22.871917 18.942421-41.414225 42.274826-41.414225L807.821961 222.346017c23.330358 0 42.274826 18.543332 42.274826 41.414225l0 82.792635L550.605761 646.053112z" p-id="3611"></path></svg>